<svg width="31" height="27" viewBox="0 0 31 27" fill="none" xmlns="http://www.w3.org/2000/svg">
<path d="M10.3687 21.0715C10.3687 21.1798 10.225 21.2664 10.0437 21.2664C9.8375 21.2826 9.69375 21.196 9.69375 21.0715C9.69375 20.9633 9.8375 20.8767 10.0188 20.8767C10.2063 20.8605 10.3687 20.9471 10.3687 21.0715ZM8.425 20.828C8.38125 20.9363 8.50625 21.0607 8.69375 21.0932C8.85625 21.1473 9.04375 21.0932 9.08125 20.985C9.11875 20.8767 9 20.7523 8.8125 20.7036C8.65 20.6657 8.46875 20.7198 8.425 20.828ZM11.1875 20.736C11.0063 20.7739 10.8812 20.8767 10.9 21.0012C10.9187 21.1094 11.0813 21.1798 11.2688 21.1419C11.45 21.104 11.575 21.0012 11.5562 20.893C11.5375 20.7902 11.3687 20.7198 11.1875 20.736ZM15.3 0C6.63125 0 0 5.69808 0 13.2035C0 19.2047 4.3625 24.34 10.5938 26.1473C11.3938 26.2718 11.675 25.8443 11.675 25.4926C11.675 25.1571 11.6562 23.3064 11.6562 22.17C11.6562 22.17 7.28125 22.9817 6.3625 20.5575C6.3625 20.5575 5.65 18.9828 4.625 18.5769C4.625 18.5769 3.19375 17.7274 4.725 17.7436C4.725 17.7436 6.28125 17.8518 7.1375 19.1397C8.50625 21.2285 10.8 20.6278 11.6938 20.2707C11.8375 19.4049 12.2438 18.8042 12.6938 18.4471C9.2 18.1116 5.675 17.6733 5.675 12.4676C5.675 10.9795 6.15 10.2327 7.15 9.28035C6.9875 8.92862 6.45625 7.4784 7.3125 5.60609C8.61875 5.25436 11.625 7.06714 11.625 7.06714C12.875 6.76411 14.2188 6.60718 15.55 6.60718C16.8813 6.60718 18.225 6.76411 19.475 7.06714C19.475 7.06714 22.4813 5.24895 23.7875 5.60609C24.6438 7.48381 24.1125 8.92862 23.95 9.28035C24.95 10.2382 25.5625 10.9849 25.5625 12.4676C25.5625 17.6895 21.8813 18.1062 18.3875 18.4471C18.9625 18.8746 19.45 19.6863 19.45 20.9579C19.45 22.7815 19.4312 25.038 19.4312 25.4817C19.4312 25.8335 19.7188 26.261 20.5125 26.1365C26.7625 24.34 31 19.2047 31 13.2035C31 5.69808 23.9688 0 15.3 0ZM6.075 18.6635C5.99375 18.7176 6.0125 18.8421 6.11875 18.9449C6.21875 19.0315 6.3625 19.0694 6.44375 18.999C6.525 18.9449 6.50625 18.8204 6.4 18.7176C6.3 18.6311 6.15625 18.5932 6.075 18.6635ZM5.4 18.2252C5.35625 18.2956 5.41875 18.3821 5.54375 18.4363C5.64375 18.4904 5.76875 18.4741 5.8125 18.3984C5.85625 18.328 5.79375 18.2414 5.66875 18.1873C5.54375 18.1549 5.44375 18.1711 5.4 18.2252ZM7.425 20.1516C7.325 20.222 7.3625 20.3843 7.50625 20.4871C7.65 20.6116 7.83125 20.6278 7.9125 20.5412C7.99375 20.4709 7.95625 20.3086 7.83125 20.2057C7.69375 20.0813 7.50625 20.065 7.425 20.1516ZM6.7125 19.3562C6.6125 19.4103 6.6125 19.551 6.7125 19.6754C6.8125 19.7999 6.98125 19.854 7.0625 19.7999C7.1625 19.7295 7.1625 19.5889 7.0625 19.4644C6.975 19.3399 6.8125 19.2858 6.7125 19.3562Z" fill="white"/>
</svg>
