<svg width="34" height="30" viewBox="0 0 34 30" fill="none" xmlns="http://www.w3.org/2000/svg">
<path d="M17.0038 7.22522C12.1797 7.22522 8.28857 10.6203 8.28857 14.8293C8.28857 19.0384 12.1797 22.4334 17.0038 22.4334C21.8279 22.4334 25.719 19.0384 25.719 14.8293C25.719 10.6203 21.8279 7.22522 17.0038 7.22522ZM17.0038 19.773C13.8863 19.773 11.3378 17.5559 11.3378 14.8293C11.3378 12.1027 13.8788 9.88566 17.0038 9.88566C20.1288 9.88566 22.6698 12.1027 22.6698 14.8293C22.6698 17.5559 20.1213 19.773 17.0038 19.773ZM28.1083 6.91417C28.1083 7.90025 27.1981 8.6878 26.0755 8.6878C24.9453 8.6878 24.0427 7.89364 24.0427 6.91417C24.0427 5.9347 24.9529 5.14054 26.0755 5.14054C27.1981 5.14054 28.1083 5.9347 28.1083 6.91417ZM33.8805 8.71427C33.7516 6.3384 33.1296 4.23387 31.1347 2.49995C29.1475 0.766035 26.7354 0.223358 24.0124 0.104234C21.2059 -0.0347446 12.7941 -0.0347446 9.98762 0.104234C7.27217 0.21674 4.86012 0.759417 2.86525 2.49334C0.870385 4.22726 0.255996 6.33179 0.119465 8.70765C-0.0398215 11.1563 -0.0398215 18.4957 0.119465 20.9444C0.24841 23.3202 0.870385 25.4248 2.86525 27.1587C4.86012 28.8926 7.26458 29.4353 9.98762 29.5544C12.7941 29.6934 21.2059 29.6934 24.0124 29.5544C26.7354 29.4419 29.1475 28.8992 31.1347 27.1587C33.122 25.4248 33.744 23.3202 33.8805 20.9444C34.0398 18.4957 34.0398 11.1629 33.8805 8.71427ZM30.2549 23.5717C29.6632 24.8688 28.5179 25.8682 27.0236 26.391C24.7861 27.1653 19.4765 26.9866 17.0038 26.9866C14.5311 26.9866 9.21394 27.1587 6.98394 26.391C5.49727 25.8748 4.35192 24.8755 3.75271 23.5717C2.86525 21.6194 3.07005 16.9868 3.07005 14.8293C3.07005 12.6718 2.87284 8.03262 3.75271 6.08692C4.34434 4.78979 5.48968 3.79047 6.98394 3.26764C9.22153 2.49334 14.5311 2.67202 17.0038 2.67202C19.4765 2.67202 24.7936 2.49995 27.0236 3.26764C28.5103 3.78385 29.6557 4.78317 30.2549 6.08692C31.1423 8.03923 30.9375 12.6718 30.9375 14.8293C30.9375 16.9868 31.1423 21.626 30.2549 23.5717Z" fill="white"/>
</svg>
