<svg width="42" height="30" viewBox="0 0 42 30" fill="none" xmlns="http://www.w3.org/2000/svg">
<path d="M37.6828 7.39146C37.7095 7.71584 37.7095 8.04028 37.7095 8.36466C37.7095 18.2585 29.0484 29.6586 13.2183 29.6586C8.34138 29.6586 3.81094 28.4305 0 26.2989C0.692921 26.3684 1.3591 26.3916 2.07868 26.3916C6.10274 26.3916 9.80712 25.2099 12.7653 23.194C8.98098 23.1245 5.80964 20.9696 4.71698 18.0037C5.25002 18.0732 5.78298 18.1195 6.34268 18.1195C7.1155 18.1195 7.8884 18.0268 8.6079 17.8647C4.66374 17.1695 1.70552 14.1573 1.70552 10.5195V10.4269C2.85142 10.983 4.18402 11.3305 5.59636 11.3768C3.27782 10.0329 1.75884 7.73902 1.75884 5.14387C1.75884 3.75364 2.18516 2.47925 2.9314 1.36704C7.16874 5.90852 13.5381 8.87433 20.6802 9.19878C20.5469 8.64267 20.467 8.06346 20.467 7.48418C20.467 3.35973 24.3046 0 29.0749 0C31.5533 0 33.7918 0.903659 35.3642 2.36342C37.3096 2.03905 39.1751 1.4134 40.8274 0.556103C40.1878 2.29395 38.8287 3.75372 37.0432 4.68048C38.7754 4.51837 40.4544 4.1012 42 3.52199C40.8276 5.00486 39.3618 6.32554 37.6828 7.39146Z" fill="white"/>
</svg>
